<svg xmlns="http://www.w3.org/2000/svg" xmlns:xlink="http://www.w3.org/1999/xlink" preserveAspectRatio="xMidYMid" width="25" height="24" viewBox="0 0 25 24">
  <defs>
    <style>
      .cls-1 {
        fill: #fff;
        stroke: #fff;
        stroke-linejoin: round;
        stroke-width: 2px;
        fill-rule: evenodd;
      }
    </style>
  </defs>
  <path d="M23.927,6.739 L20.042,16.155 C19.900,16.484 19.603,16.693 19.262,16.693 L8.586,16.693 C8.203,16.693 7.862,16.424 7.763,16.035 L4.289,2.793 L1.851,2.793 C1.383,2.793 1.000,2.390 1.000,1.897 C1.000,1.403 1.383,1.000 1.851,1.000 L4.928,1.000 C5.310,1.000 5.651,1.269 5.750,1.657 L9.224,14.899 L18.695,14.899 L21.843,7.277 L11.351,7.277 C10.883,7.277 10.500,6.873 10.500,6.380 C10.500,5.887 10.883,5.484 11.351,5.484 L23.147,5.484 C23.431,5.484 23.700,5.633 23.856,5.887 C24.012,6.141 24.041,6.455 23.927,6.739 ZM7.777,18.935 C8.841,18.935 9.706,19.846 9.706,20.967 C9.706,22.088 8.841,23.000 7.777,23.000 C6.714,23.000 5.849,22.088 5.849,20.967 C5.849,19.846 6.714,18.935 7.777,18.935 ZM19.702,18.935 C20.765,18.860 21.687,19.712 21.758,20.818 C21.786,21.371 21.630,21.894 21.290,22.298 C20.950,22.716 20.482,22.955 19.971,23.000 C19.929,23.000 19.872,23.000 19.830,23.000 C18.823,23.000 17.986,22.163 17.915,21.102 C17.845,19.996 18.639,19.009 19.702,18.935 Z" class="cls-1"/>
</svg>
