<svg xmlns="http://www.w3.org/2000/svg" xmlns:xlink="http://www.w3.org/1999/xlink" preserveAspectRatio="xMidYMid" width="47.06" height="35" viewBox="0 0 47.06 35">
  <defs>
    <style>
      .cls-1 {
        fill: #f16d7f;
        fill-rule: evenodd;
      }
    </style>
  </defs>
  <path d="M42.404,8.549 C39.840,8.549 37.757,10.588 37.757,13.091 C37.757,14.434 38.364,15.630 39.316,16.463 L33.455,18.522 L25.113,8.820 C26.912,8.193 28.211,6.529 28.211,4.555 C28.211,2.051 26.127,0.011 23.564,0.011 C21.004,0.011 18.918,2.051 18.918,4.555 C18.918,6.510 20.195,8.163 21.964,8.806 L13.609,18.522 L7.749,16.463 C8.701,15.630 9.308,14.434 9.308,13.091 C9.308,10.588 7.224,8.549 4.662,8.549 C2.101,8.549 0.014,10.588 0.014,13.091 C0.014,15.224 1.533,17.007 3.562,17.493 L3.562,29.808 C3.562,29.895 3.593,29.968 3.612,30.050 C3.580,30.174 3.562,30.303 3.562,30.439 C3.562,34.859 21.486,34.989 23.530,34.989 C25.571,34.989 43.497,34.859 43.497,30.439 C43.497,30.303 43.478,30.174 43.448,30.050 C43.470,29.968 43.497,29.895 43.497,29.808 L43.497,17.493 C45.530,17.007 47.046,15.224 47.046,13.091 C47.049,10.588 44.965,8.549 42.404,8.549 ZM21.179,4.557 C21.179,3.270 22.250,2.223 23.566,2.223 C24.879,2.223 25.951,3.270 25.951,4.557 C25.951,5.844 24.879,6.890 23.566,6.890 C22.250,6.890 21.179,5.844 21.179,4.557 ZM13.586,20.865 C14.029,21.018 14.528,20.888 14.833,20.534 L23.531,10.415 L32.232,20.534 C32.535,20.888 33.032,21.018 33.477,20.867 L41.237,18.136 L41.237,28.093 C36.351,25.967 25.123,25.888 23.530,25.888 C21.937,25.888 10.707,25.967 5.822,28.093 L5.822,18.135 L13.586,20.865 ZM23.533,32.779 C14.825,32.779 9.279,31.766 6.971,30.914 C6.517,30.747 6.178,30.581 5.975,30.439 C6.696,29.916 9.036,29.204 12.943,28.703 C15.697,28.349 19.223,28.098 23.533,28.098 C27.843,28.098 31.369,28.349 34.124,28.703 C38.030,29.204 40.372,29.916 41.091,30.439 C40.888,30.585 40.550,30.747 40.097,30.914 C37.789,31.766 32.244,32.779 23.533,32.779 ZM2.279,13.091 C2.279,11.806 3.350,10.760 4.666,10.760 C5.982,10.760 7.052,11.806 7.052,13.091 C7.052,14.378 5.982,15.425 4.666,15.425 C3.350,15.425 2.279,14.378 2.279,13.091 ZM42.404,15.425 C41.088,15.425 40.017,14.378 40.017,13.091 C40.017,11.806 41.088,10.760 42.404,10.760 C43.717,10.760 44.791,11.806 44.791,13.091 C44.788,14.378 43.717,15.425 42.404,15.425 Z" class="cls-1"/>
</svg>
